<?xml version="1.0" encoding="UTF-8" standalone="no"?>
<!DOCTYPE svg PUBLIC "-//W3C//DTD SVG 1.0//EN" "http://www.w3.org/TR/2001/PR-SVG-20010719/DTD/svg10.dtd">
<svg width="23cm" height="30cm" viewBox="5 -293 460 591" xmlns="http://www.w3.org/2000/svg" xmlns:xlink="http://www.w3.org/1999/xlink">
  <path style="fill: none; fill-opacity:0; stroke-width: 2; stroke: #008800" d="M 147.784,-178.894 A 13.7971,13.7971 0 0 0 175.359,-178.894"/>
  <g>
    <rect style="fill: #ddf0f7" x="172.4" y="-291.956" width="93.85" height="39.6333"/>
    <rect style="fill: none; fill-opacity:0; stroke-width: 2; stroke: #0000aa" x="172.4" y="-291.956" width="93.85" height="39.6333"/>
    <text font-size="7.90222" style="fill: #0000ff;text-anchor:middle;font-family:serif;font-style:italic;font-weight:700" x="219.325" y="-274.567">
      <tspan x="219.325" y="-274.567">relish:</tspan>
      <tspan x="219.325" y="-264.689">Dinner</tspan>
    </text>
  </g>
  <g>
    <path style="fill: #ccffdd" d="M 138.883 -31.8286 L 170.783,-31.8286 L 177.163,-20.8286 L 170.783,-9.8286 L 138.883,-9.8286 L 132.503,-20.8286 L 138.883,-31.8286z"/>
    <path style="fill: none; fill-opacity:0; stroke-width: 2; stroke: #008800" d="M 138.883 -31.8286 L 170.783,-31.8286 L 177.163,-20.8286 L 170.783,-9.8286 L 138.883,-9.8286 L 132.503,-20.8286 L 138.883,-31.8286"/>
    <text font-size="6.77333" style="fill: #000000;text-anchor:middle;font-family:sans-serif;font-style:normal;font-weight:normal" x="154.833" y="-18.7119">
      <tspan x="154.833" y="-18.7119">Spargel</tspan>
    </text>
  </g>
  <g>
    <path style="fill: #ccffdd" d="M 133.997 -202.772 L 189.147,-202.772 L 200.177,-190.833 L 189.147,-178.894 L 133.997,-178.894 L 122.967,-190.833 L 133.997,-202.772z"/>
    <path style="fill: none; fill-opacity:0; stroke-width: 2; stroke: #008800" d="M 133.997 -202.772 L 189.147,-202.772 L 200.177,-190.833 L 189.147,-178.894 L 133.997,-178.894 L 122.967,-190.833 L 133.997,-202.772"/>
    <text font-size="7.90222" style="fill: #000000;text-anchor:middle;font-family:sans-serif;font-style:normal;font-weight:normal" x="161.572" y="-188.364">
      <tspan x="161.572" y="-188.364">VeggiMeal</tspan>
    </text>
  </g>
  <g>
    <path style="fill: #ccffdd" d="M 243.814 -202.5 L 297.314,-202.5 L 308.014,-190.561 L 297.314,-178.622 L 243.814,-178.622 L 233.114,-190.561 L 243.814,-202.5z"/>
    <path style="fill: none; fill-opacity:0; stroke-width: 2; stroke: #008800" d="M 243.814 -202.5 L 297.314,-202.5 L 308.014,-190.561 L 297.314,-178.622 L 243.814,-178.622 L 233.114,-190.561 L 243.814,-202.5"/>
    <text font-size="7.90222" style="fill: #000000;text-anchor:middle;font-family:sans-serif;font-style:normal;font-weight:normal" x="270.564" y="-188.092">
      <tspan x="270.564" y="-188.092">CarniMeal</tspan>
    </text>
  </g>
  <g>
    <polyline style="fill: none; fill-opacity:0; stroke-width: 2; stroke: #000000" points="270.564,-202.5 270.564,-227.411 242.788,-227.411 242.788,-247.087 "/>
    <polygon style="fill: #000000" points="242.788,-250.087 244.788,-246.087 242.788,-247.087 240.788,-246.087 "/>
    <polygon style="fill: none; fill-opacity:0; stroke-width: 2; stroke: #000000" points="242.788,-250.087 244.788,-246.087 242.788,-247.087 240.788,-246.087 "/>
  </g>
  <g>
    <polyline style="fill: none; fill-opacity:0; stroke-width: 2; stroke: #000000" points="161.572,-202.772 161.572,-227.547 195.863,-227.547 195.863,-247.087 "/>
    <polygon style="fill: #000000" points="195.863,-250.087 197.863,-246.087 195.863,-247.087 193.863,-246.087 "/>
    <polygon style="fill: none; fill-opacity:0; stroke-width: 2; stroke: #000000" points="195.863,-250.087 197.863,-246.087 195.863,-247.087 193.863,-246.087 "/>
  </g>
  <g>
    <rect style="fill: #ddf0f7" x="46.4334" y="-111.017" width="39.7" height="29.7556"/>
    <rect style="fill: none; fill-opacity:0; stroke-width: 2; stroke: #0000aa" x="46.4334" y="-111.017" width="39.7" height="29.7556"/>
    <text font-size="7.90222" style="fill: #000000;text-anchor:middle;font-family:sans-serif;font-style:normal;font-weight:normal" x="66.2834" y="-98.6668">
      <tspan x="66.2834" y="-98.6668">add:</tspan>
      <tspan x="66.2834" y="-88.789">Taste</tspan>
    </text>
  </g>
  <g>
    <rect style="fill: #ddf0f7" x="154.492" y="-109.017" width="47.25" height="29.7556"/>
    <rect style="fill: none; fill-opacity:0; stroke-width: 2; stroke: #0000aa" x="154.492" y="-109.017" width="47.25" height="29.7556"/>
    <text font-size="7.90222" style="fill: #000000;text-anchor:middle;font-family:sans-serif;font-style:normal;font-weight:normal" x="178.117" y="-96.6668">
      <tspan x="178.117" y="-96.6668">add:</tspan>
      <tspan x="178.117" y="-86.789">Vitamins</tspan>
    </text>
  </g>
  <g>
    <rect style="fill: #ddf0f7" x="377.434" y="-112.35" width="64.4" height="29.7556"/>
    <rect style="fill: none; fill-opacity:0; stroke-width: 2; stroke: #0000aa" x="377.434" y="-112.35" width="64.4" height="29.7556"/>
    <text font-size="7.90222" style="fill: #000000;text-anchor:middle;font-family:sans-serif;font-style:normal;font-weight:normal" x="409.634" y="-100">
      <tspan x="409.634" y="-100">add:</tspan>
      <tspan x="409.634" y="-90.1222">Carbohydrats</tspan>
    </text>
  </g>
  <g>
    <rect style="fill: #ddf0f7" x="267.048" y="-113.683" width="49.95" height="29.7556"/>
    <rect style="fill: none; fill-opacity:0; stroke-width: 2; stroke: #0000aa" x="267.048" y="-113.683" width="49.95" height="29.7556"/>
    <text font-size="7.90222" style="fill: #000000;text-anchor:middle;font-family:sans-serif;font-style:normal;font-weight:normal" x="292.023" y="-101.333">
      <tspan x="292.023" y="-101.333">add:</tspan>
      <tspan x="292.023" y="-91.4556">Proteins</tspan>
    </text>
  </g>
  <g>
    <polyline style="fill: none; fill-opacity:0; stroke-width: 2; stroke: #0000ff" points="56.3584,-116.188 56.3584,-155.629 161.572,-155.629 161.572,-178.894 "/>
    <polygon style="fill: #ffffff" points="56.3584,-111.017 52.3584,-115.017 56.3584,-119.017 60.3584,-115.017 "/>
    <polygon style="fill: none; fill-opacity:0; stroke-width: 2; stroke: #0000ff" points="56.3584,-111.017 52.3584,-115.017 56.3584,-119.017 60.3584,-115.017 "/>
  </g>
  <g>
    <polyline style="fill: none; fill-opacity:0; stroke-width: 2; stroke: #0000ff" points="166.304,-114.188 166.304,-136.962 161.572,-136.962 161.572,-178.894 "/>
    <polygon style="fill: #ffffff" points="166.304,-109.017 162.304,-113.017 166.304,-117.017 170.304,-113.017 "/>
    <polygon style="fill: none; fill-opacity:0; stroke-width: 2; stroke: #0000ff" points="166.304,-109.017 162.304,-113.017 166.304,-117.017 170.304,-113.017 "/>
  </g>
  <g>
    <polyline style="fill: none; fill-opacity:0; stroke-width: 2; stroke: #0000ff" points="393.534,-117.522 393.534,-155.629 161.572,-155.629 161.572,-178.894 "/>
    <polygon style="fill: #ffffff" points="393.534,-112.35 389.534,-116.35 393.534,-120.35 397.534,-116.35 "/>
    <polygon style="fill: none; fill-opacity:0; stroke-width: 2; stroke: #0000ff" points="393.534,-112.35 389.534,-116.35 393.534,-120.35 397.534,-116.35 "/>
  </g>
  <g>
    <polyline style="fill: none; fill-opacity:0; stroke-width: 2; stroke: #a020f0" points="189.929,-114.188 189.929,-133.629 270.564,-133.629 270.564,-178.622 "/>
    <polygon style="fill: #ffffff" points="189.929,-109.017 185.929,-113.017 189.929,-117.017 193.929,-113.017 "/>
    <polygon style="fill: none; fill-opacity:0; stroke-width: 2; stroke: #a020f0" points="189.929,-109.017 185.929,-113.017 189.929,-117.017 193.929,-113.017 "/>
  </g>
  <g>
    <polyline style="fill: none; fill-opacity:0; stroke-width: 2; stroke: #a020f0" points="409.634,-117.522 409.634,-144.295 270.564,-144.295 270.564,-178.622 "/>
    <polygon style="fill: #ffffff" points="409.634,-112.35 405.634,-116.35 409.634,-120.35 413.634,-116.35 "/>
    <polygon style="fill: none; fill-opacity:0; stroke-width: 2; stroke: #a020f0" points="409.634,-112.35 405.634,-116.35 409.634,-120.35 413.634,-116.35 "/>
  </g>
  <g>
    <polyline style="fill: none; fill-opacity:0; stroke-width: 2; stroke: #a020f0" points="292.024,-118.855 292.024,-144.295 270.564,-144.295 270.564,-178.622 "/>
    <polygon style="fill: #ffffff" points="292.024,-113.683 288.024,-117.683 292.024,-121.683 296.024,-117.683 "/>
    <polygon style="fill: none; fill-opacity:0; stroke-width: 2; stroke: #a020f0" points="292.024,-113.683 288.024,-117.683 292.024,-121.683 296.024,-117.683 "/>
  </g>
  <path style="fill: none; fill-opacity:0; stroke-width: 2; stroke: #008800" d="M 257.188,-178.622 A 13.3753,13.3753 0 0 0 283.938,-178.622"/>
  <g>
    <polyline style="fill: none; fill-opacity:0; stroke-width: 2; stroke: #000000" points="38.324,-31.8286 38.324,-56.5449 56.3584,-56.5449 56.3584,-76.0252 "/>
    <polygon style="fill: #000000" points="56.3584,-79.0252 58.3584,-75.0252 56.3584,-76.0252 54.3584,-75.0252 "/>
    <polygon style="fill: none; fill-opacity:0; stroke-width: 2; stroke: #000000" points="56.3584,-79.0252 58.3584,-75.0252 56.3584,-76.0252 54.3584,-75.0252 "/>
  </g>
  <g>
    <path style="fill: #ccffdd" d="M 81.0514 -32.4954 L 112.201,-32.4954 L 118.431,-21.0287 L 112.201,-9.56207 L 81.0514,-9.56207 L 74.8214,-21.0287 L 81.0514,-32.4954z"/>
    <path style="fill: none; fill-opacity:0; stroke-width: 2; stroke: #008800" d="M 81.0514 -32.4954 L 112.201,-32.4954 L 118.431,-21.0287 L 112.201,-9.56207 L 81.0514,-9.56207 L 74.8214,-21.0287 L 81.0514,-32.4954"/>
    <text font-size="6.77333" style="fill: #000000;text-anchor:middle;font-family:sans-serif;font-style:normal;font-weight:normal" x="96.6264" y="-23.1454">
      <tspan x="96.6264" y="-23.1454">Braten-</tspan>
      <tspan x="96.6264" y="-14.6787">Sosse</tspan>
    </text>
  </g>
  <g>
    <polyline style="fill: none; fill-opacity:0; stroke-width: 2; stroke: #000000" points="154.833,-31.8286 154.833,-55.5449 166.304,-55.5449 166.304,-74.0252 "/>
    <polygon style="fill: #000000" points="166.304,-77.0252 168.304,-73.0252 166.304,-74.0252 164.304,-73.0252 "/>
    <polygon style="fill: none; fill-opacity:0; stroke-width: 2; stroke: #000000" points="166.304,-77.0252 168.304,-73.0252 166.304,-74.0252 164.304,-73.0252 "/>
  </g>
  <g>
    <polyline style="fill: none; fill-opacity:0; stroke-width: 2; stroke: #000000" points="267.881,-31.8286 267.881,-57.8782 279.536,-57.8782 279.536,-78.6918 "/>
    <polygon style="fill: #000000" points="279.536,-81.6918 281.536,-77.6918 279.536,-78.6918 277.536,-77.6918 "/>
    <polygon style="fill: none; fill-opacity:0; stroke-width: 2; stroke: #000000" points="279.536,-81.6918 281.536,-77.6918 279.536,-78.6918 277.536,-77.6918 "/>
  </g>
  <text font-size="9.03111" style="fill: #000000;text-anchor:start;font-family:monospace;font-style:normal;font-weight:normal" x="63.652" y="18.5833">
    <tspan x="63.652" y="18.5833">R-1.1.1: Wenn Hollandaise im VeggiMeal -&gt; Spargel im VeggiMeal</tspan>
  </text>
  <text font-size="9.03111" style="fill: #000000;text-anchor:start;font-family:monospace;font-style:normal;font-weight:normal" x="8.91862" y="135.833">
    <tspan x="8.91862" y="135.833">[1] manu: .../VeggiMeal/addVitamins/Spargel#  /* because manually selected */</tspan>
    <tspan x="8.91862" y="147.122">[2] auto: .../VeggiMeal/addTaste/Hollandaise  /* because MP R.1.1.2 */</tspan>
    <tspan x="8.91862" y="158.411">[3] auto: .../VeggiMeal/addCarbo/Kartoffeln   /* because MP R.3.2 */</tspan>
  </text>
  <text font-size="12.8" style="fill: #0000aa;text-anchor:start;font-family:sans-serif;font-style:normal;font-weight:normal" x="8.91862" y="122.333">
    <tspan x="8.91862" y="122.333">Modus Ponens driven deduction =&gt; VeggiMeal mit Spargel</tspan>
  </text>
  <g>
    <path style="fill: #ccffdd" d="M 15.549 -31.8286 L 61.099,-31.8286 L 70.209,-20.3619 L 61.099,-8.89527 L 15.549,-8.89527 L 6.43896,-20.3619 L 15.549,-31.8286z"/>
    <path style="fill: none; fill-opacity:0; stroke-width: 2; stroke: #008800" d="M 15.549 -31.8286 L 61.099,-31.8286 L 70.209,-20.3619 L 61.099,-8.89527 L 15.549,-8.89527 L 6.43896,-20.3619 L 15.549,-31.8286"/>
    <text font-size="6.77333" style="fill: #000000;text-anchor:middle;font-family:sans-serif;font-style:normal;font-weight:normal" x="38.324" y="-22.4786">
      <tspan x="38.324" y="-22.4786">Sauce</tspan>
      <tspan x="38.324" y="-14.0119">Hollandaise</tspan>
    </text>
  </g>
  <g>
    <path style="fill: #ccffdd" d="M 188.659 -31.8286 L 218.059,-31.8286 L 223.939,-20.8286 L 218.059,-9.8286 L 188.659,-9.8286 L 182.779,-20.8286 L 188.659,-31.8286z"/>
    <path style="fill: none; fill-opacity:0; stroke-width: 2; stroke: #008800" d="M 188.659 -31.8286 L 218.059,-31.8286 L 223.939,-20.8286 L 218.059,-9.8286 L 188.659,-9.8286 L 182.779,-20.8286 L 188.659,-31.8286"/>
    <text font-size="6.77333" style="fill: #000000;text-anchor:middle;font-family:sans-serif;font-style:normal;font-weight:normal" x="203.359" y="-18.7119">
      <tspan x="203.359" y="-18.7119">Erbsen</tspan>
    </text>
  </g>
  <g>
    <path style="fill: #ccffdd" d="M 249.456 -31.8286 L 286.306,-31.8286 L 293.676,-20.8286 L 286.306,-9.8286 L 249.456,-9.8286 L 242.086,-20.8286 L 249.456,-31.8286z"/>
    <path style="fill: none; fill-opacity:0; stroke-width: 2; stroke: #008800" d="M 249.456 -31.8286 L 286.306,-31.8286 L 293.676,-20.8286 L 286.306,-9.8286 L 249.456,-9.8286 L 242.086,-20.8286 L 249.456,-31.8286"/>
    <text font-size="6.77333" style="fill: #000000;text-anchor:middle;font-family:sans-serif;font-style:normal;font-weight:normal" x="267.881" y="-18.7119">
      <tspan x="267.881" y="-18.7119">Schinken</tspan>
    </text>
  </g>
  <g>
    <path style="fill: #ccffdd" d="M 304.388 -31.8286 L 333.088,-31.8286 L 338.828,-20.8286 L 333.088,-9.8286 L 304.388,-9.8286 L 298.648,-20.8286 L 304.388,-31.8286z"/>
    <path style="fill: none; fill-opacity:0; stroke-width: 2; stroke: #008800" d="M 304.388 -31.8286 L 333.088,-31.8286 L 338.828,-20.8286 L 333.088,-9.8286 L 304.388,-9.8286 L 298.648,-20.8286 L 304.388,-31.8286"/>
    <text font-size="6.77333" style="fill: #000000;text-anchor:middle;font-family:sans-serif;font-style:normal;font-weight:normal" x="318.738" y="-18.7119">
      <tspan x="318.738" y="-18.7119">Braten</tspan>
    </text>
  </g>
  <g>
    <path style="fill: #ccffdd" d="M 359.26 -31.8286 L 398.61,-31.8286 L 406.48,-20.8286 L 398.61,-9.8286 L 359.26,-9.8286 L 351.39,-20.8286 L 359.26,-31.8286z"/>
    <path style="fill: none; fill-opacity:0; stroke-width: 2; stroke: #008800" d="M 359.26 -31.8286 L 398.61,-31.8286 L 406.48,-20.8286 L 398.61,-9.8286 L 359.26,-9.8286 L 351.39,-20.8286 L 359.26,-31.8286"/>
    <text font-size="6.77333" style="fill: #000000;text-anchor:middle;font-family:sans-serif;font-style:normal;font-weight:normal" x="378.935" y="-18.7119">
      <tspan x="378.935" y="-18.7119">Kartoffeln</tspan>
    </text>
  </g>
  <g>
    <path style="fill: #ccffdd" d="M 419.878 -31.8286 L 456.028,-31.8286 L 463.258,-20.8286 L 456.028,-9.8286 L 419.878,-9.8286 L 412.648,-20.8286 L 419.878,-31.8286z"/>
    <path style="fill: none; fill-opacity:0; stroke-width: 2; stroke: #008800" d="M 419.878 -31.8286 L 456.028,-31.8286 L 463.258,-20.8286 L 456.028,-9.8286 L 419.878,-9.8286 L 412.648,-20.8286 L 419.878,-31.8286"/>
    <text font-size="6.77333" style="fill: #000000;text-anchor:middle;font-family:sans-serif;font-style:normal;font-weight:normal" x="437.953" y="-18.7119">
      <tspan x="437.953" y="-18.7119">Nudeln</tspan>
    </text>
  </g>
  <g>
    <polyline style="fill: none; fill-opacity:0; stroke-width: 2; stroke: #000000" points="203.359,-31.8286 203.359,-55.5449 189.929,-55.5449 189.929,-74.0252 "/>
    <polygon style="fill: #000000" points="189.929,-77.0252 191.929,-73.0252 189.929,-74.0252 187.929,-73.0252 "/>
    <polygon style="fill: none; fill-opacity:0; stroke-width: 2; stroke: #000000" points="189.929,-77.0252 191.929,-73.0252 189.929,-74.0252 187.929,-73.0252 "/>
  </g>
  <g>
    <polyline style="fill: none; fill-opacity:0; stroke-width: 2; stroke: #000000" points="437.953,-31.8286 437.953,-57.2115 425.734,-57.2115 425.734,-77.3584 "/>
    <polygon style="fill: #000000" points="425.734,-80.3584 427.734,-76.3584 425.734,-77.3584 423.734,-76.3584 "/>
    <polygon style="fill: none; fill-opacity:0; stroke-width: 2; stroke: #000000" points="425.734,-80.3584 427.734,-76.3584 425.734,-77.3584 423.734,-76.3584 "/>
  </g>
  <g>
    <polyline style="fill: none; fill-opacity:0; stroke-width: 2; stroke: #000000" points="378.935,-31.8286 378.935,-57.2115 393.534,-57.2115 393.534,-77.3584 "/>
    <polygon style="fill: #000000" points="393.534,-80.3584 395.534,-76.3584 393.534,-77.3584 391.534,-76.3584 "/>
    <polygon style="fill: none; fill-opacity:0; stroke-width: 2; stroke: #000000" points="393.534,-80.3584 395.534,-76.3584 393.534,-77.3584 391.534,-76.3584 "/>
  </g>
  <g>
    <polyline style="fill: none; fill-opacity:0; stroke-width: 2; stroke: #000000" points="318.738,-31.8286 318.738,-57.8782 304.511,-57.8782 304.511,-78.6918 "/>
    <polygon style="fill: #000000" points="304.511,-81.6918 306.511,-77.6918 304.511,-78.6918 302.511,-77.6918 "/>
    <polygon style="fill: none; fill-opacity:0; stroke-width: 2; stroke: #000000" points="304.511,-81.6918 306.511,-77.6918 304.511,-78.6918 302.511,-77.6918 "/>
  </g>
  <g>
    <polyline style="fill: none; fill-opacity:0; stroke-width: 2; stroke: #000000" points="96.6264,-32.4954 96.6264,-56.8783 76.2084,-56.8783 76.2084,-76.0252 "/>
    <polygon style="fill: #000000" points="76.2084,-79.0252 78.2084,-75.0252 76.2084,-76.0252 74.2084,-75.0252 "/>
    <polygon style="fill: none; fill-opacity:0; stroke-width: 2; stroke: #000000" points="76.2084,-79.0252 78.2084,-75.0252 76.2084,-76.0252 74.2084,-75.0252 "/>
  </g>
  <g>
    <polyline style="fill: none; fill-opacity:0; stroke-width: 2; stroke: #a020f0" points="76.2084,-116.188 76.2084,-143.629 270.564,-143.629 270.564,-178.622 "/>
    <polygon style="fill: #ffffff" points="76.2084,-111.017 72.2084,-115.017 76.2084,-119.017 80.2084,-115.017 "/>
    <polygon style="fill: none; fill-opacity:0; stroke-width: 2; stroke: #a020f0" points="76.2084,-111.017 72.2084,-115.017 76.2084,-119.017 80.2084,-115.017 "/>
  </g>
  <text font-size="9.03111" style="fill: #000000;text-anchor:start;font-family:monospace;font-style:normal;font-weight:normal" x="63.652" y="55.9714">
    <tspan x="63.652" y="55.9714">R-1.2.2: Wenn Spargel im CarniMeal -&gt; Hollandaise im CarniMeal</tspan>
  </text>
  <text font-size="9.03111" style="fill: #000000;text-anchor:start;font-family:monospace;font-style:normal;font-weight:normal" x="63.652" y="31.9714">
    <tspan x="63.652" y="31.9714">R-1.1.2: Wenn Spargel im VeggiMeal -&gt; Hollandaise im VeggiMeal</tspan>
  </text>
  <text font-size="9.03111" style="fill: #000000;text-anchor:start;font-family:monospace;font-style:normal;font-weight:normal" x="63.652" y="43.9714">
    <tspan x="63.652" y="43.9714">R-1.2.1: Wenn Hollandaise im CarniMeal -&gt; Spargel im CarniMeal</tspan>
  </text>
  <text font-size="9.03111" style="fill: #000000;text-anchor:start;font-family:monospace;font-style:normal;font-weight:normal" x="63.652" y="67.9714">
    <tspan x="63.652" y="67.9714">R-2:     Wenn Spargel im CarniMeal -&gt; Schinken im CarniMeal</tspan>
  </text>
  <text font-size="9.03111" style="fill: #000000;text-anchor:start;font-family:monospace;font-style:normal;font-weight:normal" x="63.652" y="81.3046">
    <tspan x="63.652" y="81.3046">R-3.1:   Wenn Spargel im CarniMeal -&gt; Kartoffeln im CarniMeal</tspan>
  </text>
  <text font-size="9.03111" style="fill: #000000;text-anchor:start;font-family:monospace;font-style:normal;font-weight:normal" x="63.652" y="94.638">
    <tspan x="63.652" y="94.638">R-3.2:   Wenn Spargel im VeggiMeal -&gt; Kartoffeln im VeggiMeal</tspan>
  </text>
  <text font-size="12.8" style="fill: #0000aa;text-anchor:start;font-family:sans-serif;font-style:normal;font-weight:normal" x="10.3186" y="179.738">
    <tspan x="10.3186" y="179.738">Modus Tollens driven deduction =&gt; CarniMeal mit Bratensoße</tspan>
  </text>
  <text font-size="9.03111" style="fill: #000000;text-anchor:start;font-family:monospace;font-style:normal;font-weight:normal" x="9.65194" y="192.905">
    <tspan x="9.65194" y="192.905">[1] manu: .../CarniMeal/addTaste/Bratensoße#  /* because manually selected */</tspan>
    <tspan x="9.65194" y="204.193">[2] auto: .../CarniMeal/addVitamis/Erbsen     /* because MT R.1.2.1  */</tspan>
    <tspan x="9.65194" y="215.482">[3] manu: .../CarniMeal/addCarbo/Nudeln#      /* because manually selected */</tspan>
    <tspan x="9.65194" y="226.771">[4] manu: .../CarniMeal/addProteins/Schinken# /* because manually selected */</tspan>
  </text>
  <text font-size="9.03111" style="fill: #000000;text-anchor:start;font-family:monospace;font-style:normal;font-weight:normal" x="8.98528" y="261.572">
    <tspan x="8.98528" y="261.572">[1] manu: .../CarniMeal/addProteins/Schinken#  /* because manually selected */</tspan>
    <tspan x="8.98528" y="272.861">[2] auto: .../CarniMeal/addCarbo/Nudeln#       /* because manually selected  */</tspan>
    <tspan x="8.98528" y="284.15">[3] manu: .../CarniMeal/addVitamins/Erbsen     /* because MT R.3.1 */</tspan>
    <tspan x="8.98528" y="295.439">[4] manu: .../CarniMeal/addTaste/Bratensoße    /* because MT R.1.2.1 */</tspan>
  </text>
  <text font-size="12.8" style="fill: #0000aa;text-anchor:start;font-family:sans-serif;font-style:normal;font-weight:normal" x="12.3186" y="251.072">
    <tspan x="12.3186" y="251.072">Modus Tollens driven deduction =&gt; CarniMeal mit Schinken</tspan>
  </text>
</svg>
